<svg width="40" height="40" viewBox="0 0 40 40" fill="none" xmlns="http://www.w3.org/2000/svg">
<path d="M23.7738 26.5628L20.9115 23.7243C19.596 22.4198 18.9382 21.7675 18.1809 21.5228C17.5147 21.3075 16.7977 21.3075 16.1314 21.5228C15.3741 21.7675 14.7163 22.4198 13.4007 23.7243L6.7359 30.437M23.7738 26.5628L24.3427 25.9985C25.686 24.6665 26.3575 24.0005 27.1282 23.7575C27.8059 23.5437 28.534 23.552 29.2067 23.7813C29.9714 24.0422 30.6275 24.7233 31.9397 26.0858L33.3327 27.5002M23.7738 26.5628L30.366 33.2713M33.3327 20V28C33.3327 29.8668 33.3327 30.8003 32.9693 31.5133C32.6498 32.1405 32.1399 32.6505 31.5127 32.97C30.7997 33.3333 29.8662 33.3333 27.9993 33.3333H11.9993C10.1325 33.3333 9.19908 33.3333 8.48605 32.97C7.85885 32.6505 7.3489 32.1405 7.02933 31.5133C6.87573 31.2118 6.78708 30.871 6.7359 30.437C6.66602 29.8443 6.66602 29.0777 6.66602 28V12C6.66602 10.1332 6.66602 9.19973 7.02933 8.4867C7.3489 7.85948 7.85885 7.34955 8.48605 7.02998C9.19908 6.66667 10.1325 6.66667 11.9993 6.66667H19.9993M26.666 5L30.8327 9.16667M30.8327 9.16667L34.9993 13.3333M30.8327 9.16667L34.9993 5M30.8327 9.16667L26.666 13.3333" stroke="#737373" stroke-width="2.5" stroke-linecap="round" stroke-linejoin="round"/>
</svg>
