<svg width="10" height="10" viewBox="0 0 10 10" fill="none" xmlns="http://www.w3.org/2000/svg">
<g clip-path="url(#clip0_645_15787)">
<circle cx="5" cy="5" r="1.25" fill="#41B437"/>
<path fill-rule="evenodd" clip-rule="evenodd" d="M5 3.4375C4.13705 3.4375 3.4375 4.13705 3.4375 5C3.4375 5.86296 4.13705 6.5625 5 6.5625C5.86296 6.5625 6.5625 5.86296 6.5625 5C6.5625 4.13705 5.86296 3.4375 5 3.4375ZM4.0625 5C4.0625 4.48225 4.48225 4.0625 5 4.0625C5.51775 4.0625 5.9375 4.48225 5.9375 5C5.9375 5.51775 5.51775 5.9375 5 5.9375C4.48225 5.9375 4.0625 5.51775 4.0625 5Z" fill="#41B437"/>
<path fill-rule="evenodd" clip-rule="evenodd" d="M4.9987 1.35449C3.11781 1.35449 1.8509 2.48124 1.1156 3.43652L1.10234 3.45374C0.936048 3.66971 0.78289 3.86863 0.678985 4.10383C0.567715 4.3557 0.519531 4.6302 0.519531 5.00033C0.519531 5.37045 0.567715 5.64495 0.678985 5.89683C0.78289 6.13203 0.936048 6.33095 1.10234 6.54691L1.1156 6.56412C1.8509 7.51941 3.11781 8.64616 4.9987 8.64616C6.87957 8.64616 8.14649 7.51941 8.88178 6.56412L8.89503 6.54691C9.06136 6.33095 9.21449 6.13203 9.31841 5.89683C9.4297 5.64495 9.47786 5.37045 9.47786 5.00033C9.47786 4.6302 9.4297 4.3557 9.31841 4.10383C9.21449 3.86862 9.06136 3.66971 8.89503 3.45373L8.88178 3.43652C8.14649 2.48124 6.87957 1.35449 4.9987 1.35449ZM1.61087 3.81774C2.2898 2.93571 3.39468 1.97949 4.9987 1.97949C6.6027 1.97949 7.70761 2.93571 8.38653 3.81774C8.56928 4.05515 8.67632 4.19703 8.7467 4.35637C8.81253 4.50533 8.85286 4.68737 8.85286 5.00033C8.85286 5.31328 8.81253 5.49533 8.7467 5.64428C8.67632 5.80362 8.56928 5.94549 8.38653 6.18291C7.70761 7.06495 6.6027 8.02116 4.9987 8.02116C3.39468 8.02116 2.2898 7.06495 1.61087 6.18291C1.42813 5.94549 1.32109 5.80362 1.25068 5.64428C1.18488 5.49533 1.14453 5.31328 1.14453 5.00033C1.14453 4.68737 1.18488 4.50533 1.25068 4.35637C1.32109 4.19703 1.42813 4.05515 1.61087 3.81774Z" fill="#41B437"/>
</g>
<defs>
<clipPath id="clip0_645_15787">
<rect width="10" height="10" fill="white"/>
</clipPath>
</defs>
</svg>
