<svg width="10" height="10" viewBox="0 0 10 10" fill="none" xmlns="http://www.w3.org/2000/svg">
<g clip-path="url(#clip0_645_15794)">
<path d="M6.95215 7.32529C7.14595 7.32529 7.30575 7.16548 7.30575 6.97168V5.36175H8.79158C8.98539 5.36175 9.16219 5.20195 9.16219 5.00814C9.16219 4.81434 9.00239 4.65453 8.80858 4.65453H7.30575V3.0446C7.30575 2.8508 7.14595 2.691 6.95215 2.691H5.34222V1.20517C5.34222 1.01137 5.18241 0.851562 4.98861 0.851562C4.79481 0.851562 4.635 1.01137 4.635 1.20517V2.691H3.02507C2.83127 2.691 2.67147 2.8508 2.67147 3.0446V4.65453H1.18564C0.991834 4.65453 0.832031 4.81434 0.832031 5.00814C0.832031 5.20195 0.991834 5.36175 1.18564 5.36175H2.67147V6.97168C2.67147 7.16548 2.83127 7.32529 3.02507 7.32529H4.635V8.81111C4.635 9.00492 4.79481 9.16472 4.98861 9.16472C5.18241 9.16472 5.34222 9.00492 5.34222 8.82811V7.32529H6.95215ZM6.61554 6.61807H5.34222V5.36175H6.61554V6.61807ZM6.61554 3.39821V4.65453H5.34222V3.39821H6.61554ZM3.37868 3.39821H4.635V4.65453H3.37868V3.39821ZM3.37868 6.61807V5.36175H4.635V6.61807H3.37868Z" fill="#41B437"/>
<path d="M8.79297 6.72363C8.59917 6.72363 8.43936 6.88344 8.43936 7.07724V8.45597H7.06064C6.86683 8.45597 6.70703 8.61577 6.70703 8.80957C6.70703 9.00338 6.86683 9.16318 7.06064 9.16318H8.79467C8.98847 9.16318 9.14828 9.00338 9.14828 8.80957V7.07554C9.14658 6.88344 8.98677 6.72363 8.79297 6.72363Z" fill="#41B437"/>
<path d="M2.91967 8.45792H1.53924V7.07919C1.53924 6.88539 1.37944 6.72559 1.18564 6.72559C0.991834 6.72559 0.832031 6.88539 0.832031 7.07919V8.81323C0.832031 9.00703 0.991834 9.16683 1.18564 9.16683H2.91967C3.09647 9.16683 3.27328 9.00703 3.27328 8.81323C3.27328 8.61602 3.11347 8.45792 2.91967 8.45792Z" fill="#41B437"/>
<path d="M1.18564 3.27581C1.36244 3.27581 1.52224 3.11601 1.52224 2.9392V1.56048H2.91967C3.11347 1.56048 3.27328 1.40067 3.27328 1.20687C3.27328 1.01307 3.11347 0.851562 2.91967 0.851562H1.18564C0.991834 0.851562 0.832031 1.01137 0.832031 1.20517V2.9205C0.832031 3.11601 0.991834 3.27581 1.18564 3.27581Z" fill="#41B437"/>
<path d="M7.05843 1.54192H8.43716V2.92065C8.43716 3.11445 8.59696 3.27425 8.79076 3.27425C8.98457 3.27425 9.14437 3.11445 9.14437 2.92065V1.18661C9.14437 0.992811 8.98457 0.833008 8.79076 0.833008H7.05673C6.86293 0.833008 6.70312 0.992811 6.70312 1.18661C6.70312 1.38042 6.86463 1.54192 7.05843 1.54192Z" fill="#41B437"/>
</g>
<defs>
<clipPath id="clip0_645_15794">
<rect width="10" height="10" fill="white"/>
</clipPath>
</defs>
</svg>
