<svg width="10" height="10" viewBox="0 0 10 10" fill="none" xmlns="http://www.w3.org/2000/svg">
<path fill-rule="evenodd" clip-rule="evenodd" d="M9.39392 2.94234C9.55254 3.01033 9.626 3.19404 9.55804 3.35267L9.27079 3.22957C9.55804 3.35267 9.55808 3.3526 9.55804 3.35267L9.55775 3.35337L9.55729 3.35441L9.55596 3.35748L9.5515 3.36751C9.54775 3.3759 9.54242 3.38765 9.5355 3.40252C9.52163 3.43225 9.50138 3.47447 9.4745 3.52714C9.42079 3.63241 9.34063 3.77986 9.23267 3.9531C9.05533 4.2377 8.801 4.59524 8.46329 4.95049L8.86679 5.35395C8.98879 5.47599 8.98879 5.67387 8.86679 5.79591C8.74475 5.91795 8.54688 5.91795 8.42483 5.79591L8.00792 5.37899C7.73304 5.60928 7.41783 5.82541 7.06042 6.00299L7.44942 6.60083C7.54354 6.74545 7.50258 6.93903 7.35792 7.03316C7.21325 7.12728 7.01967 7.08633 6.92554 6.94166L6.47171 6.2442C6.147 6.35024 5.79542 6.42233 5.41663 6.44816V7.18791C5.41663 7.36049 5.27671 7.50041 5.10413 7.50041C4.93154 7.50041 4.79163 7.36049 4.79163 7.18791V6.44816C4.42454 6.42312 4.08295 6.35466 3.76659 6.25391L3.31906 6.9417C3.22493 7.08637 3.03136 7.12733 2.8867 7.0332C2.74204 6.93908 2.70107 6.74549 2.7952 6.60083L3.17537 6.01658C2.81521 5.84066 2.49742 5.62549 2.22018 5.39549L1.81977 5.79591C1.69773 5.91795 1.49987 5.91795 1.37783 5.79591C1.25579 5.67387 1.25579 5.47603 1.37783 5.35399L1.76273 4.96908C1.41916 4.61087 1.16052 4.24897 0.980321 3.96068C0.870767 3.78542 0.789417 3.63609 0.734951 3.52944C0.707701 3.47608 0.687126 3.4333 0.673071 3.40317C0.666042 3.38811 0.660638 3.37619 0.656838 3.36769L0.652342 3.35753L0.650992 3.35443L0.650538 3.35338L0.650367 3.35298C0.650338 3.35291 0.650234 3.35267 0.937467 3.22957L0.650367 3.35298C0.582384 3.19435 0.655734 3.01033 0.814367 2.94234C0.972871 2.87441 1.15641 2.94772 1.22453 3.10608C1.22451 3.10603 1.22456 3.10613 1.22453 3.10608L1.22493 3.10699L1.22746 3.11271C1.22992 3.11821 1.23392 3.12703 1.23947 3.13894C1.25058 3.16276 1.2679 3.19884 1.29157 3.24519C1.33894 3.33795 1.41151 3.47135 1.5103 3.62941C1.70847 3.94644 2.00899 4.35753 2.419 4.73858C2.7798 5.07387 3.22191 5.38274 3.75069 5.58616C4.14839 5.73916 4.59808 5.83374 5.10413 5.83374C5.6215 5.83374 6.08 5.73491 6.48433 5.57574C7.00992 5.36887 7.44904 5.05799 7.80692 4.72208C8.21092 4.34289 8.507 3.93589 8.70225 3.62258C8.79958 3.46637 8.87104 3.33468 8.91771 3.24318C8.94104 3.19747 8.95808 3.16189 8.96904 3.13843C8.9745 3.12669 8.97846 3.118 8.98088 3.11259L8.98333 3.10697L8.98358 3.10647C8.98354 3.10651 8.98358 3.10643 8.98358 3.10647M9.39392 2.94234C9.23529 2.87437 9.05158 2.94792 8.98358 3.10647L9.39392 2.94234ZM1.22453 3.10608C1.22451 3.10603 1.22456 3.10613 1.22453 3.10608V3.10608Z" fill="#FF6E5A"/>
</svg>
