<svg width="14" height="14" viewBox="0 0 14 14" fill="none" xmlns="http://www.w3.org/2000/svg">
<g clip-path="url(#clip0_413_22582)">
<path fill-rule="evenodd" clip-rule="evenodd" d="M11.3523 6.84323C11.1277 4.661 9.28382 2.95898 7.04237 2.95898C5.1902 2.95898 3.60967 4.12142 2.98987 5.75634C1.63956 6.03326 0.624023 7.22821 0.624023 8.66048C0.624023 10.2978 1.95122 11.625 3.58848 11.625H10.9677C12.2967 11.625 13.374 10.5476 13.374 9.21863C13.374 8.02049 12.4983 7.0274 11.3523 6.84323Z" stroke="currentColor" stroke-width="0.8"/>
<path fill-rule="evenodd" clip-rule="evenodd" d="M10.9658 6.81055C9.63687 6.81055 8.55957 7.88796 8.55957 9.21695C8.55957 10.5459 9.63687 11.6233 10.9658 11.6233C12.2948 11.6233 13.3721 10.5459 13.3721 9.21687C13.3721 7.88796 12.2948 6.81055 10.9658 6.81055Z" stroke="currentColor" stroke-width="0.8"/>
</g>
<defs>
<clipPath id="clip0_413_22582">
<rect width="14" height="14" fill="white"/>
</clipPath>
</defs>
</svg>
