<svg width="16" height="16" viewBox="0 0 16 16" fill="none" xmlns="http://www.w3.org/2000/svg">
<path d="M8 1.00195C11.5899 1.00195 14.5008 3.91206 14.501 7.50195C14.501 11.092 11.5901 14.0029 8 14.0029C4.41011 14.0027 1.5 11.0919 1.5 7.50195C1.50022 3.9122 4.41025 1.00218 8 1.00195ZM10.54 5.46875C10.4052 5.46875 10.275 5.5228 10.1797 5.61816L6.98438 8.81445L5.82031 7.64941C5.7731 7.6022 5.71696 7.56462 5.65527 7.53906C5.59367 7.51359 5.52761 7.5 5.46094 7.5C5.32615 7.50005 5.19688 7.5541 5.10156 7.64941C5.05443 7.69659 5.01673 7.75284 4.99121 7.81445C4.96577 7.87603 4.95312 7.94216 4.95312 8.00879C4.95315 8.07546 4.96571 8.14152 4.99121 8.20312C5.01676 8.26481 5.05435 8.32095 5.10156 8.36816L6.625 9.8916C6.67216 9.93888 6.72836 9.97635 6.79004 10.002C6.85165 10.0275 6.91767 10.041 6.98438 10.041C7.05117 10.041 7.11799 10.0276 7.17969 10.002C7.24115 9.97639 7.29671 9.93871 7.34375 9.8916L10.8994 6.33691C10.9947 6.24163 11.0478 6.11225 11.0479 5.97754C11.0479 5.84286 10.9945 5.71349 10.8994 5.61816C10.8042 5.52291 10.6747 5.46887 10.54 5.46875Z" fill="currentColor"/>
</svg>
