<svg width="24" height="24" viewBox="0 0 24 24" fill="none" xmlns="http://www.w3.org/2000/svg">
  <path d="M8.68652 2.88281C8.86708 2.88281 9.04029 2.95535 9.16797 3.08301C9.29566 3.2107 9.36816 3.38388 9.36816 3.56445C9.36809 3.74492 9.29559 3.91828 9.16797 4.0459C9.04031 4.17337 8.86694 4.24512 8.68652 4.24512H5.3125C4.89657 4.24512 4.49732 4.4101 4.20312 4.7041C3.90901 4.99822 3.74329 5.39754 3.74316 5.81348V18.1875C3.74316 18.6036 3.9089 19.0026 4.20312 19.2969C4.49735 19.5911 4.8964 19.7568 5.3125 19.7568H17.6865C18.1025 19.7567 18.5018 19.591 18.7959 19.2969C19.0899 19.0027 19.2549 18.6034 19.2549 18.1875V13.6885C19.2549 13.508 19.3266 13.3347 19.4541 13.207C19.5817 13.0794 19.7551 13.0079 19.9355 13.0078C20.1161 13.0078 20.2893 13.0793 20.417 13.207C20.5447 13.3347 20.6172 13.5079 20.6172 13.6885V18.1875C20.6172 18.9646 20.3082 19.7102 19.7588 20.2598C19.2093 20.8093 18.4636 21.118 17.6865 21.1182H5.3125C4.53524 21.1182 3.78984 20.8094 3.24023 20.2598C2.69063 19.7102 2.38184 18.9648 2.38184 18.1875V5.81348C2.38196 5.03639 2.69074 4.29071 3.24023 3.74121C3.7898 3.19184 4.53541 2.88281 5.3125 2.88281H8.68652ZM16.6064 2.88184C16.6963 2.88187 16.7857 2.89984 16.8682 2.93555C16.9494 2.97075 17.0221 3.02275 17.083 3.08691H17.084L20.458 6.46094H20.457C20.527 6.52149 20.5804 6.59887 20.6104 6.68652H20.6094C20.675 6.85071 20.6746 7.03354 20.6074 7.19727L20.6055 7.20312C20.5619 7.29473 20.4914 7.36994 20.4053 7.42285L17.0391 10.791L17.0381 10.79C16.977 10.8545 16.9038 10.9071 16.8223 10.9424C16.74 10.9779 16.6512 10.996 16.5615 10.9961C16.4717 10.9961 16.3823 10.978 16.2998 10.9424C16.2193 10.9075 16.1466 10.8563 16.0859 10.793C16.0206 10.7315 15.9683 10.6575 15.9326 10.5752C15.8969 10.4926 15.8789 10.4034 15.8789 10.3135C15.8789 10.2235 15.8969 10.1343 15.9326 10.0518C15.9684 9.96925 16.0204 9.89455 16.0859 9.83301L18.29 7.62012H13.1865C12.1737 7.62012 11.2025 8.02214 10.4863 8.73828C9.77019 9.45443 9.36816 10.4257 9.36816 11.4385V13.6885C9.36809 13.869 9.29559 14.0423 9.16797 14.1699C9.04031 14.2974 8.86694 14.3691 8.68652 14.3691C8.50609 14.369 8.33267 14.2975 8.20508 14.1699C8.07749 14.0423 8.00593 13.8689 8.00586 13.6885V11.4385C8.0089 10.0656 8.55556 8.74913 9.52637 7.77832C10.4972 6.80751 11.8136 6.26085 13.1865 6.25781H18.2939L16.1279 4.04102V4.04004C16.0642 3.97928 16.0126 3.90697 15.9775 3.82617C15.9418 3.7437 15.9239 3.65432 15.9238 3.56445C15.9238 3.47455 15.9419 3.38525 15.9775 3.30273C16.0122 3.22259 16.0631 3.15034 16.126 3.08984L16.1318 3.08398C16.1923 3.02105 16.2646 2.97025 16.3447 2.93555C16.4272 2.89985 16.5165 2.88184 16.6064 2.88184Z" fill="currentColor" stroke="currentColor" stroke-width="0.236842"/>
</svg>