<svg width="40" height="40" viewBox="0 0 40 40" fill="none" xmlns="http://www.w3.org/2000/svg">
<path d="M23.7743 26.5628L20.912 23.7243C19.5965 22.4198 18.9387 21.7675 18.1813 21.5228C17.5152 21.3075 16.7982 21.3075 16.1319 21.5228C15.3746 21.7675 14.7168 22.4198 13.4012 23.7243L6.73639 30.437M23.7743 26.5628L24.3432 25.9985C25.6865 24.6665 26.358 24.0005 27.1287 23.7575C27.8063 23.5437 28.5345 23.552 29.2072 23.7813C29.9718 24.0422 30.628 24.7233 31.9402 26.0858L33.3332 27.5002M23.7743 26.5628L30.3665 33.2713M33.3332 21.6667V28C33.3332 29.8668 33.3332 30.8003 32.9698 31.5133C32.6503 32.1405 32.1403 32.6505 31.5132 32.97C30.8002 33.3333 29.8667 33.3333 27.9998 33.3333H11.9998C10.133 33.3333 9.19957 33.3333 8.48654 32.97C7.85934 32.6505 7.34939 32.1405 7.02982 31.5133C6.87622 31.2118 6.78757 30.871 6.73639 30.437C6.6665 29.8443 6.6665 29.0777 6.6665 28V12C6.6665 10.1332 6.6665 9.19973 7.02982 8.4867C7.34939 7.85948 7.85934 7.34955 8.48654 7.02998C9.19957 6.66667 10.133 6.66667 11.9998 6.66667H18.3332M24.9998 8.80952L27.9998 11.6667L34.9998 5" stroke="#FF9632" stroke-width="2.5" stroke-linecap="round" stroke-linejoin="round"/>
</svg>
