<?xml version="1.0" encoding="UTF-8"?>
<svg width="691px" height="562px" viewBox="0 0 691 562" version="1.1" xmlns="http://www.w3.org/2000/svg" xmlns:xlink="http://www.w3.org/1999/xlink">
    <title>Group 52</title>
    <defs>
        <polygon id="path-1" points="0.00179104478 0.278935323 143.672239 0.278935323 143.672239 288.617327 0.00179104478 288.617327"></polygon>
        <polygon id="path-3" points="0 0.180710204 139.931651 0.180710204 139.931651 140.392261 0 140.392261"></polygon>
        <polygon id="path-5" points="0 0.11164898 139.931436 0.11164898 139.931436 140.323919 0 140.323919"></polygon>
        <polygon id="path-7" points="0 0.0682036269 138.286635 0.0682036269 138.286635 138.355198 0 138.355198"></polygon>
        <polygon id="path-9" points="0 0.136252041 139.931651 0.136252041 139.931651 140.348522 0 140.348522"></polygon>
    </defs>
    <g id="Page-1" stroke="none" stroke-width="1" fill="none" fill-rule="evenodd">
        <g id="Sign-In" transform="translate(0.000000, -279.000000)">
            <g id="Group-52" transform="translate(0.000000, 279.000000)">
                <path d="M691,463.994283 L691,561.994283 L593,561.994283 C593,507.871259 636.876983,463.994283 691,463.994283" id="Fill-1" fill="#FFD741"></path>
                <path d="M420,142.994283 L280,142.994283 L280,2.99428274 C357.320541,2.99428274 420,65.672627 420,142.994283" id="Fill-3" fill="#DCFA64"></path>
                <g id="Group-7" transform="translate(278.000000, 0.994283)">
                    <mask id="mask-2" fill="white">
                        <use xlink:href="#path-1"></use>
                    </mask>
                    <g id="Clip-6"></g>
                    <path d="M0.00179104478,288.617327 L0.00179104478,280.849553 C74.9541493,280.849553 135.931343,219.660633 135.931343,144.448023 C135.931343,69.2354137 74.9541493,8.04649328 0.00179104478,8.04649328 L0.00179104478,0.278719652 C79.2218507,0.278719652 143.672239,64.9528938 143.672239,144.448023 C143.672239,223.943152 79.2218507,288.617327 0.00179104478,288.617327" id="Fill-5" fill="#FF9632" mask="url(#mask-2)"></path>
                </g>
                <path d="M458,486.994283 C458,469.321372 472.327089,454.994283 490,454.994283 C507.672911,454.994283 522,469.321372 522,486.994283 C522,504.667193 507.672911,518.994283 490,518.994283 C472.327089,518.994283 458,504.667193 458,486.994283" id="Fill-8" fill="#4141FF"></path>
                <path d="M691,421.994283 L691,467.995383 C639.086267,467.995383 597.000399,510.080791 597.000399,561.994283 L551,561.994283 C551,484.673408 613.679053,421.994283 691,421.994283" id="Fill-10" fill="#4141FF"></path>
                <path d="M691,142.994283 L691,327.994283 L506,327.994283 C506,225.81291 588.826992,142.994283 691,142.994283" id="Fill-12" fill="#FF9632"></path>
                <path d="M524.99964,155.765128 C469.732972,155.765128 424.770819,200.728149 424.770819,255.994283 C424.770819,311.261135 469.732972,356.224157 524.99964,356.224157 C580.267028,356.224157 625.229181,311.261135 625.229181,255.994283 C625.229181,200.728149 580.267028,155.765128 524.99964,155.765128 M524.99964,363.994283 C465.448054,363.994283 417,315.546068 417,255.994283 C417,196.443217 465.448054,147.994283 524.99964,147.994283 C584.551227,147.994283 633,196.443217 633,255.994283 C633,315.546068 584.551227,363.994283 524.99964,363.994283" id="Fill-14" fill="#DCFC57"></path>
                <path d="M691,327.994283 L691,421.994283 L597,421.994283 C597,370.075515 639.085101,327.994283 691,327.994283" id="Fill-16" fill="#50C3FF"></path>
                <path d="M551,48.9942827 L551,142.994283 L457,142.994283 C457,91.0755148 499.084704,48.9942827 551,48.9942827" id="Fill-18" fill="#50C3FF"></path>
                <path d="M513.999642,351.256666 C498.05988,351.256666 485.091344,338.226767 485.091344,322.211583 C485.091344,306.193524 498.05988,293.163624 513.999642,293.163624 C529.939404,293.163624 542.90794,306.193524 542.90794,322.211583 C542.90794,326.162737 542.118284,329.932073 540.688462,333.368672 C539.836577,335.420427 538.756521,337.355041 537.476905,339.136582 C532.226833,346.471155 523.660061,351.256666 513.999642,351.256666 L513.999642,351.256666 Z M511.481181,368.503622 C504.526624,373.843934 496.909728,378.155852 488.890136,381.575204 L488.890136,399.994283 C505.776199,393.974126 521.178079,383.958976 533.831896,371.238816 C546.191739,358.813304 559.159559,342.382019 559.95923,324.143322 C559.987125,323.503721 560,322.857652 560,322.211583 C560,296.725988 539.362354,275.994283 513.999642,275.994283 C488.637646,275.994283 468,296.725988 468,322.211583 C468,346.844136 487.285789,367.039726 511.481181,368.357017 L511.481181,368.503622 Z" id="Fill-20" fill="#FFFFFF"></path>
                <path d="M513.999642,296.082592 C499.681714,296.082592 488.033812,307.76094 488.033812,322.115964 C488.033812,336.469553 499.681714,348.147182 513.999642,348.147182 C522.323969,348.147182 530.208064,344.085523 535.088558,337.281167 C536.243183,335.678031 537.213126,333.939986 537.973332,332.112956 C539.296176,328.940413 539.965472,325.577703 539.965472,322.115964 C539.965472,307.76094 528.317571,296.082592 513.999642,296.082592 L513.999642,296.082592 Z M513.999642,354.091127 C496.412542,354.091127 482.103919,339.747585 482.103919,322.115964 C482.103919,304.483625 496.412542,290.138648 513.999642,290.138648 C531.586743,290.138648 545.895365,304.483625 545.895365,322.115964 C545.895365,326.368507 545.070735,330.502645 543.445097,334.402843 C542.509514,336.649672 541.316234,338.787425 539.899617,340.755823 C533.909594,349.104471 524.226632,354.091127 513.999642,354.091127 L513.999642,354.091127 Z M491.834842,383.342969 L491.834842,395.491349 C506.509967,389.627777 520.238771,380.517747 531.750667,368.970722 C548.153793,352.517413 556.424433,337.779187 557.032884,323.914289 C557.05937,323.319392 557.070823,322.718037 557.070823,322.115964 C557.070823,298.307894 537.749279,278.938227 513.999642,278.938227 C490.250005,278.938227 470.929177,298.307894 470.929177,322.115964 C470.929177,345.049988 488.811198,363.986937 511.638852,365.226963 L514.443453,365.379096 L514.443453,369.809606 L513.278806,370.701592 C506.882912,375.602852 499.675987,379.850372 491.834842,383.342969 L491.834842,383.342969 Z M485.905665,403.994283 L485.905665,379.426984 L487.711691,378.657708 C493.432563,376.225018 498.804112,373.377551 503.755473,370.160516 C481.50191,365.424305 465,345.614745 465,322.115964 C465,295.030579 486.981549,272.994283 513.999642,272.994283 C541.018451,272.994283 563,295.030579 563,322.115964 C563,322.804867 562.986399,323.493053 562.957051,324.175498 C562.278449,339.593299 553.443023,355.620349 535.943968,373.173033 C522.783529,386.372708 506.848552,396.54408 489.861313,402.587054 L485.905665,403.994283 Z" id="Fill-22" fill="#FF6E5A"></path>
                <path d="M419,561.994283 L279,561.994283 L279,421.994283 C356.326071,421.994283 419,484.673612 419,561.994283" id="Fill-24" fill="#FF6E5A"></path>
                <path d="M372,561.994283 L279,561.994283 L279,468.994283 C330.366475,468.994283 372,510.631662 372,561.994283" id="Fill-26" fill="#DCFA64"></path>
                <g id="Group-30" transform="translate(0.000000, 2.994283)">
                    <mask id="mask-4" fill="white">
                        <use xlink:href="#path-3"></use>
                    </mask>
                    <g id="Clip-29"></g>
                    <path d="M139.931651,140.392261 L-0.000143589744,140.392261 L-0.000143589744,0.180710204 C77.2827282,0.180710204 139.931651,62.9537663 139.931651,140.392261" id="Fill-28" fill="#FF6E5A" mask="url(#mask-4)"></path>
                </g>
                <path d="M691,142.994283 L551,142.994283 L551,2.99428274 C628.320541,2.99428274 691,65.672627 691,142.994283" id="Fill-31" fill="#FF6E5A"></path>
                <g id="Group-35" transform="translate(0.000000, 142.994283)">
                    <mask id="mask-6" fill="white">
                        <use xlink:href="#path-5"></use>
                    </mask>
                    <g id="Clip-34"></g>
                    <path d="M-0.000358974359,0.11164898 L139.931436,0.11164898 L139.931436,140.323919 C62.6485641,140.323919 -0.000358974359,77.5501439 -0.000358974359,0.11164898" id="Fill-33" fill="#DCFA64" mask="url(#mask-6)"></path>
                </g>
                <path d="M140,142.994283 L280,142.994283 L280,2.99428274 C202.679459,2.99428274 140,65.672627 140,142.994283" id="Fill-36" fill="#4141FF"></path>
                <path d="M280,142.994283 L140,142.994283 L140,282.994283 C217.320541,282.994283 280,220.315939 280,142.994283 M268.785921,153.768818 C266.287679,184.221964 253.226136,212.52164 231.376927,234.37096 C209.527,256.220999 181.228188,269.281891 150.77448,271.780147 L150.77448,153.768818 L268.785921,153.768818" id="Fill-38" fill="#FF9632"></path>
                <g id="Group-42" transform="translate(0.000000, 420.994283)">
                    <mask id="mask-8" fill="white">
                        <use xlink:href="#path-7"></use>
                    </mask>
                    <g id="Clip-41"></g>
                    <path d="M-0.000360103627,0.0682036269 L-0.000360103627,138.355198 L138.286635,138.355198 C138.286635,61.9808202 76.3747383,0.0682036269 -0.000360103627,0.0682036269" id="Fill-40" fill="#4141FF" mask="url(#mask-8)"></path>
                </g>
                <g id="Group-45" transform="translate(0.000000, 280.994283)">
                    <mask id="mask-10" fill="white">
                        <use xlink:href="#path-9"></use>
                    </mask>
                    <g id="Clip-44"></g>
                    <path d="M139.931651,0.136252041 L-0.000143589744,0.136252041 L-0.000143589744,140.348522 C77.2827282,140.348522 139.931651,77.5747469 139.931651,0.136252041" id="Fill-43" fill="#FFD741" mask="url(#mask-10)"></path>
                </g>
                <path d="M420,281.994283 L280,281.994283 L280,421.994283 C357.320541,421.994283 420,359.315542 420,281.994283" id="Fill-46" fill="#FF9632"></path>
                <path d="M140,281.994283 L280,281.994283 L280,421.994283 C202.679459,421.994283 140,359.315542 140,281.994283" id="Fill-48" fill="#FF6E5A"></path>
                <path d="M140,561.994283 L280,561.994283 L280,421.994283 C202.679459,421.994283 140,484.673024 140,561.994283" id="Fill-50" fill="#DCFA64"></path>
            </g>
        </g>
    </g>
</svg>