<svg id="Layer_1" data-name="Layer 1" xmlns="http://www.w3.org/2000/svg" viewBox="0 0 572 200"><defs><style>.cls-1,.cls-3{fill:#ff9632;}.cls-1{fill-rule:evenodd;}.cls-2{fill:#4141ff;}</style></defs><title>Gump_logo</title><path class="cls-1" d="M130.9.14a24.35,24.35,0,1,1-24.35,24.35A24.36,24.36,0,0,1,130.9.14Z"/><path class="cls-2" d="M230.74,162.41q-16.86,0-26-10.52t-9.16-30.84V70.25h23v48.62q0,11.61,4.72,17.78t14.87,6.16a20.51,20.51,0,0,0,15.88-6.89q6.26-6.88,6.26-19.23V70.25h23.22v90H263L261.22,145a31.61,31.61,0,0,1-12.06,12.7A35.26,35.26,0,0,1,230.74,162.41Z"/><path class="cls-2" d="M305.48,160.23v-90H326l2,12.16A32,32,0,0,1,339.5,72a34.16,34.16,0,0,1,16.6-3.9q20.85,0,29.57,16.15a34.89,34.89,0,0,1,13.15-11.79,38,38,0,0,1,18.05-4.36q17.6,0,27,10.53t9.43,30.84v50.79H430.11V111.61q0-11.61-4.44-17.78T412,87.67a18.68,18.68,0,0,0-15.15,6.89q-5.71,6.9-5.71,19.23v46.44H367.89V111.61q0-11.61-4.54-17.78t-14-6.16a18.49,18.49,0,0,0-15,6.89q-5.71,6.9-5.72,19.23v46.44Z"/><path class="cls-2" d="M473.65,200.14V70.25h20.68l2.54,12.88a41.21,41.21,0,0,1,11.52-10.52q7.17-4.53,18.6-4.54a42.25,42.25,0,0,1,22.67,6.17,44.32,44.32,0,0,1,15.79,16.87,50.18,50.18,0,0,1,5.8,24.31,49.63,49.63,0,0,1-5.8,24.22,43.74,43.74,0,0,1-15.79,16.69A42.72,42.72,0,0,1,527,162.41a39.26,39.26,0,0,1-17.78-3.81,32.08,32.08,0,0,1-12.34-10.71v52.25Zm48.44-58a24.53,24.53,0,0,0,18.32-7.44q7.26-7.44,7.26-19.23T540.41,96a24.23,24.23,0,0,0-18.32-7.62q-11.25,0-18.42,7.53t-7.16,19.32q0,11.79,7.16,19.32T522.09,142.09Z"/><path class="cls-2" d="M81.23,151.41a70,70,0,0,1,0-140.06"/><path class="cls-2" d="M81.23,162.62A81.24,81.24,0,0,1,81.23.14V22.56a58.82,58.82,0,0,0,0,117.64Z"/><path class="cls-3" d="M93.22,162.62V140.2A58.91,58.91,0,0,0,151,92.59H93.22V70.17h81.24V81.38A81.34,81.34,0,0,1,93.22,162.62Z"/></svg>