<svg width="48" height="48" viewBox="0 0 48 48" fill="none" xmlns="http://www.w3.org/2000/svg">
<path fill-rule="evenodd" clip-rule="evenodd" d="M34.362 4.7998C35.4936 4.7998 36.5998 5.14255 37.5407 5.7847C38.4816 6.42684 39.2149 7.33955 39.6479 8.4074C40.081 9.47525 40.1943 10.6503 39.9735 11.7839C39.7527 12.9175 39.2078 13.9588 38.4077 14.7761C37.6075 15.5934 36.5881 16.15 35.4782 16.3755C34.3684 16.601 33.218 16.4853 32.1725 16.043C31.1271 15.6006 30.2335 14.8516 29.6049 13.8906C28.9762 12.9295 28.6406 11.7996 28.6406 10.6438C28.6412 9.09408 29.2442 7.608 30.3171 6.51218C31.3899 5.41635 32.8448 4.80044 34.362 4.7998Z" fill="#FF9632"/>
<path d="M22.6904 10.1846C22.6791 10.1846 22.6675 10.1845 22.6562 10.1846L22.3125 38.4121C22.4382 38.4156 22.5644 38.418 22.6904 38.418V43.7988C17.6278 43.7988 12.7722 41.7444 9.19238 38.0879C5.61281 34.4315 3.60168 29.4726 3.60156 24.3018C3.60156 19.1307 5.61268 14.1711 9.19238 10.5146C12.7722 6.85814 17.6278 4.80371 22.6904 4.80371V10.1846Z" fill="#4141FF"/>
<path d="M25.5078 43.7954V38.4146C28.7167 38.4126 31.8251 37.2719 34.3016 35.1876C36.778 33.1033 38.4686 30.205 39.0841 26.9882H25.5078V21.6074H44.5964V24.2978C44.5902 29.467 42.577 34.4226 38.9986 38.0777C35.4201 41.7328 30.5685 43.7891 25.5078 43.7954Z" fill="#FF9632"/>
</svg>
