<svg width="720" height="198" viewBox="0 0 720 198" fill="none" xmlns="http://www.w3.org/2000/svg">
<g clip-path="url(#clip0_413_21392)">
<mask id="mask0_413_21392" style="mask-type:luminance" maskUnits="userSpaceOnUse" x="588" y="66" width="132" height="132">
<path d="M588.211 66.6211H719.425V197.921H588.211V66.6211Z" fill="white"/>
</mask>
<g mask="url(#mask0_413_21392)">
<path fill-rule="evenodd" clip-rule="evenodd" d="M719.425 66.6182H588.211V197.918C660.685 197.918 719.425 139.134 719.425 66.6182Z" fill="#4141FF"/>
</g>
<path d="M11 63.7461H140.5" stroke="#50C3FF" stroke-width="5.3365" stroke-linecap="round"/>
<path fill-rule="evenodd" clip-rule="evenodd" d="M0 197.496V131.996H65.5C65.5 168.173 36.1749 197.496 0 197.496Z" fill="#FFD741"/>
<path fill-rule="evenodd" clip-rule="evenodd" d="M83 98.751C83 90.3288 89.8278 83.501 98.25 83.501C106.672 83.501 113.5 90.3288 113.5 98.751C113.5 107.174 106.672 114.001 98.25 114.001C89.8278 114.001 83 107.174 83 98.751Z" fill="#4141FF"/>
<path fill-rule="evenodd" clip-rule="evenodd" d="M174.562 131.996C174.562 156.284 154.947 175.974 130.751 175.974C106.555 175.974 86.94 156.284 86.94 131.996H65.5C65.5 168.171 94.7132 197.496 130.751 197.496C166.787 197.496 196 168.171 196 131.996H174.562Z" fill="#FF6E5A"/>
<path fill-rule="evenodd" clip-rule="evenodd" d="M87 131.996H131V175.996C106.7 175.996 87 156.296 87 131.996Z" fill="#FFD741"/>
<path fill-rule="evenodd" clip-rule="evenodd" d="M196.5 1.00098V66.501H131C131 30.3238 160.325 1.00098 196.5 1.00098Z" fill="#FF9632"/>
<path fill-rule="evenodd" clip-rule="evenodd" d="M196.5 22.9912V66.4912H153C153 42.4651 172.475 22.9912 196.5 22.9912Z" fill="#50C3FF"/>
<path fill-rule="evenodd" clip-rule="evenodd" d="M196.5 67.001V88.5229C172.212 88.5229 152.522 108.213 152.522 132.501H131C131 96.3258 160.325 67.001 196.5 67.001Z" fill="#4141FF"/>
<path fill-rule="evenodd" clip-rule="evenodd" d="M196.5 88.4961V132.496H152.5C152.5 108.195 172.2 88.4961 196.5 88.4961Z" fill="#FFD741"/>
<path fill-rule="evenodd" clip-rule="evenodd" d="M65 66.4961H0V1.49609C35.9015 1.49609 65 30.5973 65 66.4961Z" fill="#DCFA64"/>
<path d="M0 3.49121C34.794 3.49121 63 31.5853 63 66.2412C63 100.897 34.794 128.991 0 128.991" stroke="#FF9632" stroke-width="5.402"/>
<path fill-rule="evenodd" clip-rule="evenodd" d="M654 131.991H588.5V66.4912C624.678 66.4912 654 95.816 654 131.991Z" fill="#FF9632"/>
<path fill-rule="evenodd" clip-rule="evenodd" d="M456.5 66.501H391V1.00098C427.177 1.00098 456.5 30.326 456.5 66.501Z" fill="#FF6E5A"/>
<path fill-rule="evenodd" clip-rule="evenodd" d="M435 66.4912H391.5V22.9912C415.526 22.9912 435 42.4666 435 66.4912Z" fill="#50C3FF"/>
<mask id="mask1_413_21392" style="mask-type:luminance" maskUnits="userSpaceOnUse" x="653" y="0" width="67" height="67">
<path d="M653.773 0.144531H719.796V66.2098H653.773V0.144531Z" fill="white"/>
</mask>
<g mask="url(#mask1_413_21392)">
<path fill-rule="evenodd" clip-rule="evenodd" d="M719.796 66.21H653.773V0.144531C690.24 0.144531 719.796 29.7226 719.796 66.21Z" fill="#FF6E5A"/>
</g>
<path fill-rule="evenodd" clip-rule="evenodd" d="M698 66.4961H654V22.4961C678.302 22.4961 698 42.1957 698 66.4961Z" fill="#DCFA64"/>
<path fill-rule="evenodd" clip-rule="evenodd" d="M522 132.491V116.483C542.418 116.483 559.479 101.837 563.226 82.499H522V66.4912H580V74.4951C580 106.474 553.981 132.491 522 132.491Z" fill="#FF9632"/>
<path fill-rule="evenodd" clip-rule="evenodd" d="M457 66.4912C420.826 66.4912 391.5 95.8166 391.5 131.991C391.5 168.166 420.826 197.491 457 197.491C493.175 197.491 522.5 168.166 522.5 131.991C522.5 95.8166 493.175 66.4912 457 66.4912ZM457 71.4137C473.181 71.4137 488.393 77.7149 499.835 89.1568C511.276 100.598 517.578 115.81 517.578 131.991C517.578 148.172 511.276 163.385 499.835 174.826C488.393 186.268 473.181 192.569 457 192.569C440.819 192.569 425.607 186.268 414.166 174.826C402.724 163.385 396.423 148.172 396.423 131.991C396.423 115.81 402.724 100.598 414.166 89.1568C425.607 77.7149 440.819 71.4137 457 71.4137Z" fill="#FF9632"/>
<path fill-rule="evenodd" clip-rule="evenodd" d="M522.5 132.491V66.4912H456.5C456.5 102.945 486.049 132.491 522.5 132.491Z" fill="#4141FF"/>
<path fill-rule="evenodd" clip-rule="evenodd" d="M391.5 1.00098V132.001H260.5C260.5 59.6459 319.15 1.00098 391.5 1.00098Z" fill="#FF9632"/>
<path fill-rule="evenodd" clip-rule="evenodd" d="M345 85.4912C345 125.808 312.317 158.491 272 158.491C231.683 158.491 199 125.808 199 85.4912C199 45.1741 231.683 12.4912 272 12.4912C312.317 12.4912 345 45.1741 345 85.4912Z" stroke="#DCFC57" stroke-width="5.402"/>
<path fill-rule="evenodd" clip-rule="evenodd" d="M391.5 131.501V197.501H325.5C325.5 161.047 355.049 131.501 391.5 131.501Z" fill="#50C3FF"/>
<path fill-rule="evenodd" clip-rule="evenodd" d="M259.5 151.801C248.238 151.801 239.075 142.659 239.075 131.423C239.075 120.184 248.238 111.042 259.5 111.042C270.762 111.042 279.925 120.184 279.925 131.423C279.925 134.195 279.366 136.839 278.357 139.251C277.755 140.69 276.992 142.047 276.087 143.297C272.379 148.443 266.325 151.801 259.5 151.801ZM257.72 163.902C252.807 167.649 247.426 170.674 241.759 173.073V185.996C253.69 181.772 264.572 174.746 273.512 165.821C282.245 157.102 291.407 145.575 291.972 132.778C291.991 132.329 292 131.876 292 131.423C292 113.542 277.419 98.9961 259.5 98.9961C241.581 98.9961 227 113.542 227 131.423C227 148.705 240.626 162.875 257.72 163.798V163.902Z" fill="#131415"/>
<path fill-rule="evenodd" clip-rule="evenodd" d="M259.5 151.801C248.238 151.801 239.075 142.659 239.075 131.423C239.075 120.184 248.238 111.042 259.5 111.042C270.762 111.042 279.925 120.184 279.925 131.423C279.925 134.195 279.366 136.839 278.357 139.251C277.755 140.69 276.992 142.047 276.087 143.297C272.379 148.443 266.325 151.801 259.5 151.801ZM257.72 163.902C252.807 167.649 247.426 170.674 241.759 173.073V185.996C253.69 181.772 264.572 174.746 273.512 165.821C282.245 157.102 291.407 145.575 291.972 132.778C291.991 132.329 292 131.876 292 131.423C292 113.542 277.419 98.9961 259.5 98.9961C241.581 98.9961 227 113.542 227 131.423C227 148.705 240.626 162.875 257.72 163.798V163.902Z" stroke="#FF6E5A" stroke-width="4.1415"/>
<path fill-rule="evenodd" clip-rule="evenodd" d="M653.75 131.991L653.079 126.993L653.75 127.021C669.985 127.021 685.249 120.699 696.728 109.219C708.208 97.7393 714.53 82.476 714.53 66.2412C714.53 50.0064 708.208 34.7432 696.728 23.2632C685.249 11.7832 669.985 5.46135 653.75 5.46135C637.515 5.46135 622.252 11.7832 610.772 23.2632C599.292 34.7432 592.97 50.6383 592.97 66.8731H588C588 49.3108 594.839 32.1673 607.258 19.749C619.676 7.33022 636.188 0.491211 653.75 0.491211C671.312 0.491211 687.824 7.33022 700.242 19.749C712.661 32.1673 719.5 48.6784 719.5 66.2412C719.5 83.8036 712.661 100.315 700.242 112.733C687.824 125.152 671.312 131.991 653.75 131.991Z" fill="#FF9632"/>
<path fill-rule="evenodd" clip-rule="evenodd" d="M621 131.996H654V164.996C635.773 164.996 621 150.222 621 131.996Z" fill="#FFD741"/>
</g>
<defs>
<clipPath id="clip0_413_21392">
<rect width="720" height="198" fill="white"/>
</clipPath>
</defs>
</svg>
